<svg width="115" height="24" xmlns="http://www.w3.org/2000/svg"><g fill-rule="nonzero" fill="none"><path d="M11.98 4.643a7.337 7.337 0 1 0 7.346 7.336 7.345 7.345 0 0 0-7.347-7.336m0 19.217C5.42 23.854.105 18.532.11 11.972.113 5.412 5.433.097 11.993.1c6.56.001 11.877 5.32 11.877 11.88-.007 6.563-5.328 11.88-11.89 11.88" fill="#E71D50"/><path d="M21.597 4.643h-.266a11.86 11.86 0 0 1 0 14.662h.266a7.337 7.337 0 0 0 0-14.67M16.805 6.43a7.326 7.326 0 0 0 0 11.077 7.326 7.326 0 0 0 0-11.077" fill="#E44571"/><path d="M21.334 4.648a7.305 7.305 0 0 0-4.542 1.791 7.326 7.326 0 0 1 0 11.077 7.305 7.305 0 0 0 4.539 1.792 11.86 11.86 0 0 0 0-14.663" fill="#D71F28"/><path d="M21.597.098c-1.65 0-3.283.346-4.792 1.015a11.955 11.955 0 0 1 4.542 3.535h.266a7.337 7.337 0 0 1 0 14.67h-.266a11.953 11.953 0 0 1-4.539 3.536A11.88 11.88 0 1 0 21.6.106m-9.355 4.542a11.86 11.86 0 0 0 0 14.662 7.307 7.307 0 0 0 4.54-1.791 7.326 7.326 0 0 1 0-11.077 7.305 7.305 0 0 0-4.54-1.794" fill="#0D87B0"/><path d="M16.795 1.113a11.955 11.955 0 0 0-4.55 3.535 7.305 7.305 0 0 1 4.54 1.791 7.305 7.305 0 0 1 4.54-1.791 11.955 11.955 0 0 0-4.54-3.535m0 16.406a7.305 7.305 0 0 1-4.54 1.791 11.955 11.955 0 0 0 4.54 3.536 11.953 11.953 0 0 0 4.538-3.536 7.305 7.305 0 0 1-4.539-1.791" fill="#0A1438"/><path d="M50.579 6.179c-1.528 0-2.803.833-3.312 1.922-.463-1.065-1.435-1.922-3.405-1.922a3.285 3.285 0 0 0-3.01 1.783V6.455h-2.274a.25.25 0 0 0-.25.25v10.54h2.524v-5.487c0-2.571 1.04-3.357 2.316-3.357 1.413 0 1.967 1.065 1.967 2.78v6.066h2.523v-5.489c0-2.571.996-3.357 2.269-3.357 1.413 0 2.015 1.09 2.015 2.8v6.044h2.523v-6.828c0-2.016-.65-4.238-3.889-4.238M65.143 6.41a.25.25 0 0 0-.25.248v5.324c0 1.863-.834 3.266-2.593 3.266-1.805 0-2.34-1.413-2.34-3.266v-5.59h-2.274a.25.25 0 0 0-.25.25v6.162c0 1.483.162 2.396.695 3.195.602.902 1.69 1.459 3.242 1.459 1.597 0 2.849-.626 3.52-1.784v3.133c0 2.015-1.09 2.572-2.641 2.572-1.331 0-2.43-.764-2.548-2.316h-2.547c.024 1.483.577 2.593 1.482 3.335.905.743 2.154 1.113 3.589 1.113v.045c1.666 0 2.963-.394 3.844-1.182.88-.788 1.33-1.967 1.33-3.567V6.41H65.13h.014zM85.941 10.741c0-1.76 1.203-2.662 2.755-2.662 1.552 0 2.617 1.02 2.617 2.662h-5.372zm7.827.301c0-2.755-2.2-4.863-5.002-4.863-3.405 0-5.324 2.43-5.324 5.672 0 3.174 1.76 5.673 5.396 5.673 2.755 0 4.525-1.666 4.84-3.519H91.13c-.301.764-.858 1.414-2.292 1.414-2.109 0-2.78-1.252-2.894-2.8h7.72a8.87 8.87 0 0 0 .114-1.577h-.01zM113.73 15.118c-.995 0-1.576-.232-1.576-2.109V8.564h2.479V6.455h-2.479v-3.26h-2.273a.25.25 0 0 0-.25.247v3.013h-1.582a.25.25 0 0 0-.25.25V8.57h1.829v5.007c0 3.637 2.268 3.8 3.498 3.8.624 0 1.247-.046 1.863-.14v-2.222a9.61 9.61 0 0 1-1.272.093M76.24 9.999H73.09V3.423h3.152c1.863 0 3.056 1.504 3.056 3.288 0 1.784-1.203 3.288-3.056 3.288m5.72-3.288c0-3.056-2.246-5.673-5.72-5.673h-5.564a.25.25 0 0 0-.25.25v15.973h2.662v-4.877h2.662l2.965 4.863h3.035l-3.22-5.268a5.59 5.59 0 0 0 3.425-5.257M105.462 7.637c-.602-.902-1.69-1.458-3.242-1.458-1.598 0-2.849.625-3.52 1.783V6.455h-2.276a.25.25 0 0 0-.247.245v10.547H98.7v-5.59c0-1.863.834-3.266 2.593-3.266 1.808 0 2.34 1.413 2.34 3.266v5.59h2.524v-6.415c0-1.483-.163-2.396-.695-3.195" fill="#0B8DB9"/></g></svg>
