<svg width="115" height="24" viewBox="0 0 115 24" xmlns="http://www.w3.org/2000/svg" xmlns:xlink="http://www.w3.org/1999/xlink"><defs><path id="a" d="M0 21.812V.076h21.556v21.736H0z"/><path id="c" d="M7.603.156v14.747H.183V.156h7.42z"/></defs><g fill="none" fill-rule="evenodd"><g transform="translate(0 .191)"><mask id="b" fill="#fff"><use xlink:href="#a"/></mask><path d="M10.778 21.812C4.835 21.812 0 16.936 0 10.943 0 4.951 4.835.076 10.778.076c5.943 0 10.778 4.875 10.778 10.867 0 5.993-4.835 10.869-10.778 10.869m0-17.578c-3.67 0-6.654 3.01-6.654 6.71s2.985 6.71 6.654 6.71c3.67 0 6.655-3.01 6.655-6.71s-2.986-6.71-6.655-6.71" fill="#FFF" mask="url(#b)"/></g><path d="M15.136 6.068a6.72 6.72 0 0 0-2.296 5.066c0 2.021.89 3.836 2.296 5.067a6.72 6.72 0 0 0 2.297-5.067 6.72 6.72 0 0 0-2.297-5.066m4.358-1.643c-.08 0-.16.001-.24.004a10.874 10.874 0 0 1 2.302 6.705c0 2.528-.86 4.858-2.302 6.706.08.003.16.004.24.004 3.67 0 6.654-3.01 6.654-6.71s-2.984-6.71-6.654-6.71" fill="#091338"/><path d="M19.255 4.43a6.595 6.595 0 0 0-4.119 1.638 6.719 6.719 0 0 1 2.297 5.067 6.72 6.72 0 0 1-2.297 5.066 6.596 6.596 0 0 0 4.118 1.64 10.872 10.872 0 0 0 2.302-6.706c0-2.528-.86-4.858-2.301-6.706" fill="#E71D50"/><path d="M11.018 4.43a10.873 10.873 0 0 0-2.302 6.705c0 2.528.86 4.857 2.302 6.705a6.599 6.599 0 0 0 4.118-1.639 6.72 6.72 0 0 1-2.296-5.066c0-2.021.89-3.836 2.296-5.067a6.595 6.595 0 0 0-4.118-1.639m4.118-3.234a10.851 10.851 0 0 1 4.119 3.234c.08-.003.16-.004.24-.004 3.669 0 6.653 3.01 6.653 6.71 0 3.699-2.984 6.71-6.654 6.71a6.5 6.5 0 0 1-.24-.005 10.858 10.858 0 0 1-4.118 3.234c1.333.597 2.808.929 4.358.929 5.944 0 10.778-4.876 10.778-10.868C30.272 5.14 25.438.267 19.494.267c-1.55 0-3.025.332-4.358.928z" fill="#034E82"/><path d="M15.136 16.201a6.597 6.597 0 0 1-4.118 1.639 10.85 10.85 0 0 0 4.118 3.234 10.85 10.85 0 0 0 4.118-3.234 6.593 6.593 0 0 1-4.118-1.639m0-15.006a10.847 10.847 0 0 0-4.118 3.234 6.596 6.596 0 0 1 4.118 1.639 6.596 6.596 0 0 1 4.119-1.639 10.843 10.843 0 0 0-4.119-3.234" fill="#0B8DB9"/><path d="M48.078 5.85c-1.575 0-2.887.866-3.412 1.997C44.19 6.74 43.187 5.85 41.16 5.85c-1.455 0-2.624.818-3.101 1.853V6.139h-2.342a.26.26 0 0 0-.26.26v10.95h2.602v-5.701c0-2.67 1.073-3.488 2.386-3.488 1.455 0 2.028 1.106 2.028 2.886v6.303h2.6v-5.701c0-2.67 1.026-3.488 2.338-3.488 1.455 0 2.075 1.13 2.075 2.91v6.279h2.6v-7.097c0-2.092-.667-4.402-4.007-4.402M63.079 6.09a.26.26 0 0 0-.258.26v5.538c0 1.925-.859 3.392-2.672 3.392-1.86 0-2.41-1.467-2.41-3.392V6.091h-2.341a.26.26 0 0 0-.258.261v6.402c0 1.54.166 2.478.715 3.32.62.938 1.742 1.516 3.34 1.516 1.646 0 2.934-.65 3.626-1.853v3.256c0 2.093-1.121 2.67-2.72 2.67-1.36 0-2.504-.793-2.624-2.405h-2.624c.024 1.54.596 2.694 1.527 3.464.93.77 2.218 1.154 3.697 1.154v.048c1.718 0 3.054-.408 3.96-1.226.908-.818 1.384-2.045 1.384-3.705V6.091H63.08zM92.57 10.902c0-2.863-2.266-5.052-5.152-5.052-3.508 0-5.488 2.526-5.488 5.894 0 3.296 1.813 5.894 5.559 5.894 2.839 0 4.676-1.732 4.986-3.657h-2.624c-.31.794-.883 1.468-2.362 1.468-2.171 0-2.863-1.3-2.982-2.911h7.944c.12-.721.12-1.251.12-1.636zm-8.063-.313c0-1.828 1.24-2.766 2.839-2.766 1.574 0 2.695 1.058 2.695 2.766h-5.534z" fill="#FFF"/><g transform="translate(106.843 2.591)"><mask id="d" fill="#fff"><use xlink:href="#c"/></mask><path d="M6.291 12.545c-1.026 0-1.622-.24-1.622-2.19V5.738h2.553V3.548H4.669V.156H2.326a.26.26 0 0 0-.257.258v3.134H.44a.26.26 0 0 0-.256.259v1.93h1.885v5.22c0 3.777 2.338 3.946 3.602 3.946.763 0 1.527-.073 1.932-.145v-2.31a9.834 9.834 0 0 1-1.312.097" fill="#FFF" mask="url(#d)"/></g><path d="M80.403 6.404c0-3.175-2.313-5.894-5.892-5.894H68.78a.26.26 0 0 0-.257.259v16.58h2.743v-5.052h2.744l3.054 5.052h3.125l-3.316-5.484c2.195-.915 3.53-3.056 3.53-5.461M74.511 9.82h-3.245V2.988h3.245c1.909 0 3.149 1.564 3.149 3.416 0 1.852-1.24 3.416-3.15 3.416M104.618 7.366c-.62-.938-1.742-1.516-3.34-1.516-1.646 0-2.935.65-3.626 1.853V6.139h-2.345a.26.26 0 0 0-.256.255v10.955h2.6v-5.797c0-1.925.86-3.392 2.673-3.392 1.86 0 2.41 1.467 2.41 3.392v5.797h2.6v-6.664c0-1.54-.167-2.477-.716-3.32" fill="#FFF"/></g></svg>